<svg preserveAspectRatio="none" width="100%" height="100%" overflow="visible" style="display: block;" viewBox="0 0 22.3827 5.22261" fill="none" xmlns="http://www.w3.org/2000/svg">
<g id="logo ozon blue">
<path id="logo" d="M0.0123461 2.86816C-0.140356 1.22253 1.14477 -0.149152 2.68617 0.0136719C3.82684 0.134283 4.74996 1.11907 4.86293 2.33691C5.01546 3.98246 3.73049 5.35428 2.1891 5.19141C1.04857 5.07081 0.125451 4.0858 0.0123461 2.86816ZM13.6403 0C15.5246 8.49426e-06 17.0524 1.16483 17.0524 2.60156C17.0523 4.03822 15.5246 5.20312 13.6403 5.20312C11.7559 5.20312 10.2282 4.03822 10.2282 2.60156C10.2282 1.16482 11.7559 0 13.6403 0ZM21.6539 0.129883C22.022 0.0471596 22.3463 0.345244 22.3463 0.723633V4.91309C22.3461 5.05907 22.1879 5.14059 22.0807 5.0498L19.0036 2.44238V4.48145C19.0036 4.85973 18.6791 5.15763 18.3112 5.0752C18.0473 5.01593 17.8659 4.7536 17.8659 4.46582V0.291016C17.8661 0.145014 18.0243 0.0635038 18.1315 0.154297L21.2096 2.76172L21.2086 0.739258C21.2087 0.451494 21.3902 0.189214 21.6539 0.129883ZM9.73891 0.116211C9.87403 0.116558 9.95034 0.281372 9.86879 0.396484L7.40102 3.87402H9.33461C9.6871 3.87402 9.96444 4.21623 9.89125 4.60645C9.83747 4.89244 9.58638 5.08789 9.31313 5.08789H5.43813C5.30415 5.0876 5.22826 4.92363 5.30922 4.80957L7.77895 1.33008H6.19203C5.91869 1.33008 5.66758 1.13479 5.61391 0.848633C5.54081 0.458479 5.8181 0.116211 6.17055 0.116211H9.73891ZM2.26821 1.22559C1.68949 1.30412 1.22179 1.80309 1.14809 2.4209C1.04015 3.3275 1.75793 4.09375 2.60707 3.97852C3.18588 3.89994 3.65353 3.40113 3.72719 2.7832C3.83509 1.87665 3.1174 1.11034 2.26821 1.22559ZM13.6403 1.21387C12.3384 1.21387 11.3659 1.94672 11.3659 2.60156C11.3659 3.25638 12.3385 3.98828 13.6403 3.98828C14.942 3.98827 15.9146 3.25638 15.9147 2.60156C15.9147 1.94673 14.9421 1.21388 13.6403 1.21387Z" fill="var(--fill-0, white)"/>
</g>
</svg>
