<svg preserveAspectRatio="none" width="100%" height="100%" overflow="visible" style="display: block;" viewBox="0 0 28.0712 28.0712" fill="none" xmlns="http://www.w3.org/2000/svg">
<g id="wildberries">
<path id="Vector" d="M4.06429e-06 13.1783C4.06429e-06 8.56546 4.06429e-06 6.25906 0.897727 4.49719C1.68738 2.94739 2.9474 1.68738 4.49719 0.897723C6.25906 0 8.56546 0 13.1783 0H14.8929C19.5057 0 21.8121 0 23.574 0.897723C25.1238 1.68738 26.3838 2.94739 27.1735 4.49719C28.0712 6.25906 28.0712 8.56546 28.0712 13.1783V14.8929C28.0712 19.5057 28.0712 21.8121 27.1735 23.574C26.3838 25.1238 25.1238 26.3838 23.574 27.1735C21.8121 28.0712 19.5057 28.0712 14.8929 28.0712H13.1783C8.56546 28.0712 6.25906 28.0712 4.49719 27.1735C2.9474 26.3838 1.68738 25.1238 0.897727 23.574C4.06429e-06 21.8121 4.06429e-06 19.5057 4.06429e-06 14.8929V13.1783Z" fill="url(#paint0_linear_0_111)"/>
<path id="Vector_2" d="M19.5077 10.6546C18.749 10.6546 18.0637 10.884 17.4787 11.2768V7.69227H15.8602V14.3029C15.8602 16.3141 17.4965 17.9327 19.4988 17.9327C21.5012 17.9327 23.1561 16.3238 23.1561 14.2843C23.1561 12.2448 21.5375 10.6546 19.5077 10.6546ZM12.1626 14.77L10.6814 10.9115H9.54771L8.05764 14.77L6.56762 10.9115H4.80204L7.40799 17.6959H8.5417L10.1053 13.6548L11.6777 17.6959H12.8114L15.4085 10.9115H13.6526L12.1626 14.77ZM19.4996 16.3149C18.4023 16.3149 17.4787 15.4374 17.4787 14.294C17.4787 13.1506 18.3474 12.2828 19.5085 12.2828C20.6697 12.2828 21.5384 13.1878 21.5384 14.294C21.5384 15.4002 20.6147 16.3149 19.4996 16.3149Z" fill="var(--fill-0, white)"/>
</g>
<defs>
<linearGradient id="paint0_linear_0_111" x1="9.44216" y1="30.4956" x2="26.6676" y2="1.78635" gradientUnits="userSpaceOnUse">
<stop stop-color="#6F01FB"/>
<stop offset="1" stop-color="#FF49D7"/>
</linearGradient>
</defs>
</svg>
