<svg preserveAspectRatio="none" width="100%" height="100%" overflow="visible" style="display: block;" viewBox="0 0 16 16" fill="none" xmlns="http://www.w3.org/2000/svg">
<g id="ic_m_picker_filled">
<path id="Union" d="M7.34921 3.5741C7.7237 3.25311 8.2763 3.25311 8.65079 3.5741L10.9841 5.5741C11.4034 5.93352 11.452 6.56482 11.0926 6.98414C10.7332 7.40347 10.1019 7.45203 9.68254 7.09261L8 5.65043L6.31746 7.09261C5.89813 7.45203 5.26683 7.40347 4.90741 6.98414C4.54799 6.56482 4.59655 5.93352 5.01587 5.5741L7.34921 3.5741ZM4.90741 9.0159C5.26683 8.59657 5.89813 8.54801 6.31746 8.90743L8 10.3496L9.68254 8.90743C10.1019 8.54801 10.7332 8.59657 11.0926 9.0159C11.452 9.43522 11.4034 10.0665 10.9841 10.4259L8.65079 12.4259C8.2763 12.7469 7.7237 12.7469 7.34921 12.4259L5.01587 10.4259C4.59655 10.0665 4.54799 9.43522 4.90741 9.0159Z" fill="var(--fill-0, white)"/>
</g>
</svg>
