<svg preserveAspectRatio="none" width="100%" height="100%" overflow="visible" style="display: block;" viewBox="0 0 24 24" fill="none" xmlns="http://www.w3.org/2000/svg">
<g id="ic_m_settings_filled">
<path id="Union" d="M8.77971 6.42223C8.38846 6.30058 7.99459 6.18796 7.60102 6.07415C5.84621 5.56671 5.39693 5.4368 4.20576 7.49996C3.0146 9.56312 3.35174 9.88725 4.6686 11.1532C4.96394 11.4372 5.25841 11.722 5.55938 12C5.25849 12.2779 4.9641 12.5626 4.66884 12.8465C3.35198 14.1124 3.0146 14.4368 4.20576 16.5C5.39693 18.5631 5.84646 18.4331 7.60127 17.9257C7.99365 17.8122 8.38964 17.699 8.7797 17.5777C8.86985 17.9769 8.9695 18.3753 9.0676 18.7725C9.50555 20.546 9.61768 21 12 21C14.3824 21 14.4945 20.546 14.9324 18.7725C15.0307 18.3748 15.1301 17.9774 15.2203 17.5777C15.6106 17.6991 16.0034 17.8114 16.396 17.9249C18.1508 18.4324 18.603 18.5631 19.7942 16.5C20.9854 14.4368 20.6482 14.1127 19.3314 12.8467C19.036 12.5628 18.7416 12.278 18.4406 12C18.7416 11.722 19.0361 11.4372 19.3314 11.1532C20.6483 9.88725 20.9854 9.56313 19.7943 7.49996C18.6031 5.4368 18.1538 5.56671 16.399 6.07415C16.0054 6.18796 15.6116 6.30058 15.2203 6.42223C15.13 6.02259 15.0306 5.6252 14.9324 5.22747C14.4945 3.45404 14.3824 3 12 3C9.61768 3 9.50523 3.45534 9.06728 5.22877C8.96917 5.62606 8.86988 6.02303 8.77971 6.42223ZM12 15C10.3431 15 9 13.6569 9 12C9 10.3431 10.3431 9 12 9C13.6569 9 15 10.3431 15 12C15 13.6569 13.6569 15 12 15Z" fill="var(--fill-0, white)"/>
</g>
</svg>
