<svg preserveAspectRatio="none" width="100%" height="100%" overflow="visible" style="display: block;" viewBox="0 0 20 20" fill="none" xmlns="http://www.w3.org/2000/svg">
<g id="ic_m_overview_filled">
<path id="Union" d="M4.26929 3.33141C3.33333 4.23113 3.33333 6.10449 3.33333 10.0052C3.33333 13.9059 3.33333 15.7764 4.26782 16.6734C5.12886 17.4999 6.82122 17.5 10 17.5C13.1862 17.5 14.8228 17.4999 15.6828 16.6774C16.6027 15.7977 16.6228 13.9772 16.6643 10.2095C16.669 9.79281 16.6667 7.91667 16.5833 7.5C16.419 6.67846 16.25 6.25 14.5833 4.58333C12.9167 2.91667 12.5118 2.75234 11.6667 2.58326C11.2505 2.5 10.4186 2.5 10.0014 2.5C6.79976 2.50002 5.13415 2.50004 4.26929 3.33141ZM7.5 11.6667C7.03976 11.6667 6.66667 11.2936 6.66667 10.8333C6.66667 10.3731 7.03976 10 7.5 10H12.5C12.9602 10 13.3333 10.3731 13.3333 10.8333C13.3333 11.2936 12.9602 11.6667 12.5 11.6667H7.5ZM6.66667 14.1667C6.66667 13.7064 7.03976 13.3333 7.5 13.3333H10.8333C11.2936 13.3333 11.6667 13.7064 11.6667 14.1667C11.6667 14.6269 11.2936 15 10.8333 15H7.5C7.03976 15 6.66667 14.6269 6.66667 14.1667ZM6.66667 6.66667C6.66667 5.29419 6.96084 5 8.33333 5C9.70583 5 10 5.29419 10 6.66667C10 8.03914 9.70583 8.33333 8.33333 8.33333C6.96084 8.33333 6.66667 8.03914 6.66667 6.66667Z" fill="var(--fill-0, #005BFF)"/>
</g>
</svg>
