<svg preserveAspectRatio="none" width="100%" height="100%" overflow="visible" style="display: block;" viewBox="0 0 20 20" fill="none" xmlns="http://www.w3.org/2000/svg">
<g id="ic_m_person_filled">
<path id="Union" d="M17.5 9.9999C17.5 14.6534 14.6535 17.4999 10 17.4999C5.34648 17.4999 2.5 14.6534 2.5 9.9999C2.5 5.34637 5.34648 2.4999 10 2.4999C14.6535 2.4999 17.5 5.34637 17.5 9.9999ZM7.5 8.33323C7.5 7.87303 7.12687 7.4999 6.66667 7.4999C6.20646 7.4999 5.83333 7.87303 5.83333 8.33323C5.83333 8.79344 6.20646 9.16656 6.66667 9.16656C7.12687 9.16656 7.5 8.79344 7.5 8.33323ZM8.08329 11.9048C7.75747 11.5852 7.23419 11.5872 6.91071 11.9107C6.58529 12.236 6.58529 12.7638 6.91071 13.0891C7.0109 13.1894 8.03538 14.1666 10 14.1666C11.9646 14.1666 12.9891 13.1894 13.0893 13.0891C13.4147 12.7638 13.4147 12.236 13.0893 11.9107C12.7658 11.5872 12.2425 11.5852 11.9167 11.9048C11.7956 12.0161 11.646 12.1011 11.4999 12.174C11.187 12.33 10.6907 12.4999 10 12.4999C9.30929 12.4999 8.81297 12.33 8.50006 12.174C8.2371 12.0427 8.09682 11.9172 8.08329 11.9048ZM14.1667 8.33323C14.1667 7.87303 13.7935 7.4999 13.3333 7.4999C12.8731 7.4999 12.5 7.87303 12.5 8.33323C12.5 8.79344 12.8731 9.16656 13.3333 9.16656C13.7935 9.16656 14.1667 8.79344 14.1667 8.33323Z" fill="var(--fill-0, #005BFF)"/>
</g>
</svg>
