<svg preserveAspectRatio="none" width="100%" height="100%" overflow="visible" style="display: block;" viewBox="0 0 20 20" fill="none" xmlns="http://www.w3.org/2000/svg">
<g id="ic_m_cross_filled">
<path id="Union" d="M4.53278 4.53278C5.02094 4.04463 5.81239 4.04463 6.30055 4.53278L10 8.23223L13.6994 4.53278C14.1876 4.04463 14.9791 4.04463 15.4672 4.53278C15.9554 5.02094 15.9554 5.81239 15.4672 6.30055L11.7678 10L15.4672 13.6994C15.9554 14.1876 15.9554 14.9791 15.4672 15.4672C14.9791 15.9554 14.1876 15.9554 13.6994 15.4672L10 11.7678L6.30055 15.4672C5.81239 15.9554 5.02094 15.9554 4.53278 15.4672C4.04463 14.9791 4.04463 14.1876 4.53278 13.6994L8.23223 10L4.53278 6.30055C4.04463 5.81239 4.04463 5.02094 4.53278 4.53278Z" fill="var(--fill-0, #001A34)" fill-opacity="0.4"/>
</g>
</svg>
