<svg preserveAspectRatio="none" width="100%" height="100%" overflow="visible" style="display: block;" viewBox="0 0 24 24" fill="none" xmlns="http://www.w3.org/2000/svg">
<g id="ic_m_d_n_d_handler_filled">
<path id="Union" d="M8 16C9.24093 16 10 16.7591 10 18C10 19.2409 9.24093 20 8 20C6.75907 20 6 19.2409 6 18C6 16.7591 6.75907 16 8 16ZM16 16C17.2409 16 18 16.7591 18 18C18 19.2409 17.2409 20 16 20C14.7591 20 14 19.2409 14 18C14 16.7591 14.7591 16 16 16ZM8 10C9.24093 10 10 10.7591 10 12C10 13.2409 9.24093 14 8 14C6.75907 14 6 13.2409 6 12C6 10.7591 6.75907 10 8 10ZM16 10C17.2409 10 18 10.7591 18 12C18 13.2409 17.2409 14 16 14C14.7591 14 14 13.2409 14 12C14 10.7591 14.7591 10 16 10ZM8 4C9.24093 4 10 4.75907 10 6C10 7.24093 9.24093 8 8 8C6.75907 8 6 7.24093 6 6C6 4.75907 6.75907 4 8 4ZM16 4C17.2409 4 18 4.75907 18 6C18 7.24093 17.2409 8 16 8C14.7591 8 14 7.24093 14 6C14 4.75907 14.7591 4 16 4Z" fill="var(--fill-0, #001A34)"/>
</g>
</svg>
