<svg preserveAspectRatio="none" width="100%" height="100%" overflow="visible" style="display: block;" viewBox="0 0 24 24" fill="none" xmlns="http://www.w3.org/2000/svg">
<g id="ic_m_plus_sign_filled">
<path id="Union" d="M12 4C12.8284 4 13.5 4.67157 13.5 5.5V10.5H18.5C19.3284 10.5 20 11.1716 20 12C20 12.8284 19.3284 13.5 18.5 13.5H13.5V18.5C13.5 19.3284 12.8284 20 12 20C11.1716 20 10.5 19.3284 10.5 18.5V13.5H5.5C4.67157 13.5 4 12.8284 4 12C4 11.1716 4.67157 10.5 5.5 10.5H10.5V5.5C10.5 4.67157 11.1716 4 12 4Z" fill="var(--fill-0, #005BFF)"/>
</g>
</svg>
