<svg preserveAspectRatio="none" width="100%" height="100%" overflow="visible" style="display: block;" viewBox="0 0 24 24" fill="none" xmlns="http://www.w3.org/2000/svg">
<g id="ic_m_trash_bin_filled">
<path id="Union" d="M18 10C18.5 10 19 10.2812 19 11C19 19.5 19 21 12 21C5 21 5 19.5 5 11C5 10.28 5.5 10 6 10H18ZM10 13C9.44772 13 9 13.4477 9 14V16C9 16.5523 9.44772 17 10 17C10.5523 17 11 16.5523 11 16V14C11 13.4477 10.5523 13 10 13ZM14 13C13.4477 13 13 13.4477 13 14V16C13 16.5523 13.4477 17 14 17C14.5523 17 15 16.5523 15 16V14C15 13.4477 14.5523 13 14 13ZM12.5586 3C13.8499 3.00004 14.996 3.82676 15.4043 5.05176L15.7344 6.04199C18.4546 6.14929 20 6.52948 20 7.875C20 9 19.5 9 18.5 9H5.5C4.5 9 4 9 4 7.875C4 6.52947 5.54535 6.14929 8.26562 6.04199L8.5957 5.05176C9.00403 3.82678 10.1502 3.00006 11.4414 3H12.5586ZM11.4414 5C11.0111 5.00006 10.6293 5.27543 10.4932 5.68359L10.3867 6.00293C10.8981 6.00024 11.4363 6 12 6C12.5637 6 13.1019 6.00024 13.6133 6.00293L13.5068 5.68359C13.3707 5.27543 12.9889 5.00004 12.5586 5H11.4414Z" fill="var(--fill-0, #001A34)"/>
</g>
</svg>
