<svg preserveAspectRatio="none" width="100%" height="100%" overflow="visible" style="display: block;" viewBox="0 0 12 12" fill="none" xmlns="http://www.w3.org/2000/svg">
<g id="ic_m_cloud_filled">
<path id="Union" d="M6.25 2.5C8.04493 2.5 9.5 3.95507 9.5 5.75C9.5 6.02743 9.46482 6.29664 9.39941 6.55371C10.0337 6.7287 10.5 7.31003 10.5 8C10.5 8.82843 9.82843 9.5 9 9.5H3.5C2.74061 9.5 2.07989 9.07658 1.74121 8.45312C1.58734 8.16979 1.5 7.84509 1.5 7.5C1.5 6.5663 2.13976 5.78182 3.00488 5.56152C3.16308 5.52128 3.32928 5.5 3.5 5.5C3.86429 5.5 4.20583 5.59741 4.5 5.76758C4.56756 5.80666 4.62489 5.84671 4.67578 5.88184C4.84093 5.99584 4.93777 6.06211 5.09082 5.90918C5.16975 5.83025 5.23249 5.67468 5 5.5C4.58215 5.18612 4.06284 5 3.5 5C3.25006 5 3.12284 4.80257 3.25 4.49805C3.74031 3.32474 4.89887 2.5 6.25 2.5Z" fill="var(--fill-0, white)"/>
</g>
</svg>
