<svg preserveAspectRatio="none" width="100%" height="100%" overflow="visible" style="display: block;" viewBox="0 0 24 24" fill="none" xmlns="http://www.w3.org/2000/svg">
<g id="ic_m_tabbar_catalog_increased">
<g id="Union">
<path d="M2.71875 6.84375C2.71875 3.44681 3.44681 2.71875 6.84375 2.71875C10.2407 2.71875 10.9688 3.44681 10.9688 6.84375C10.9688 10.2407 10.2407 10.9688 6.84375 10.9688C3.44681 10.9688 2.71875 10.2407 2.71875 6.84375Z" fill="var(--fill-0, #001A34)" fill-opacity="0.6"/>
<path d="M2.71875 17.1562C2.71875 13.7593 3.44681 13.0312 6.84375 13.0312C10.2407 13.0312 10.9688 13.7593 10.9688 17.1562C10.9688 20.5532 10.2407 21.2812 6.84375 21.2812C3.44681 21.2812 2.71875 20.5532 2.71875 17.1562Z" fill="var(--fill-0, #001A34)" fill-opacity="0.6"/>
<path d="M17.1562 2.71875C13.7593 2.71875 13.0312 3.44681 13.0312 6.84375C13.0312 10.2407 13.7593 10.9688 17.1562 10.9688C20.5532 10.9688 21.2812 10.2407 21.2812 6.84375C21.2812 3.44681 20.5532 2.71875 17.1562 2.71875Z" fill="var(--fill-0, #001A34)" fill-opacity="0.6"/>
<path d="M13.0312 17.1562C13.0312 13.7593 13.7593 13.0312 17.1562 13.0312C20.5532 13.0312 21.2812 13.7593 21.2812 17.1562C21.2812 20.5532 20.5532 21.2812 17.1562 21.2812C13.7593 21.2812 13.0312 20.5532 13.0312 17.1562Z" fill="var(--fill-0, #001A34)" fill-opacity="0.6"/>
</g>
</g>
</svg>
