<svg preserveAspectRatio="none" width="100%" height="100%" overflow="visible" style="display: block;" viewBox="0 0 24 24" fill="none" xmlns="http://www.w3.org/2000/svg">
<g id="ic_m_sort_horisontal_filled">
<g id="Union">
<path d="M9.7 4.4C10.1971 3.73726 10.0627 2.79705 9.4 2.3C8.73726 1.80294 7.79706 1.93726 7.3 2.6L4.3 6.6C3.9 7.13333 3.9 7.86666 4.3 8.4L7.3 12.4C7.79706 13.0627 8.73726 13.1971 9.4 12.7C10.0627 12.2029 10.1971 11.2627 9.7 10.6L8.5 9H18.5C19.3284 9 20 8.32842 20 7.5C20 6.67157 19.3284 6 18.5 6H8.5L9.7 4.4Z" fill="var(--fill-0, #001A34)"/>
<path d="M14.3 13.4C13.8029 12.7373 13.9373 11.7971 14.6 11.3C15.2627 10.8029 16.2029 10.9373 16.7 11.6L19.7 15.6C20.1 16.1333 20.1 16.8667 19.7 17.4L16.7 21.4C16.2029 22.0627 15.2627 22.1971 14.6 21.7C13.9373 21.2029 13.8029 20.2627 14.3 19.6L15.5 18H5.5C4.67157 18 4 17.3284 4 16.5C4 15.6716 4.67157 15 5.5 15H15.5L14.3 13.4Z" fill="var(--fill-0, #001A34)"/>
</g>
</g>
</svg>
