<svg preserveAspectRatio="none" width="100%" height="100%" overflow="visible" style="display: block;" viewBox="0 0 20 20" fill="none" xmlns="http://www.w3.org/2000/svg">
<g id="ic_m_confirmed_filled">
<path id="Union" d="M10 17.5C14.6535 17.5 17.5 14.6535 17.5 10C17.5 5.3465 14.6535 2.5 10 2.5C5.3465 2.5 2.5 5.3465 2.5 10C2.5 14.6535 5.3465 17.5 10 17.5ZM13.9226 8.92259L9.75592 13.0893C9.43049 13.4147 8.90285 13.4147 8.57741 13.0893L6.07741 10.5893C5.75197 10.2638 5.75197 9.73618 6.07741 9.41074C6.40285 9.08531 6.93049 9.08531 7.25592 9.41074L9.16667 11.3215L12.7441 7.74408C13.0695 7.41864 13.5972 7.41864 13.9226 7.74408C14.248 8.06951 14.248 8.59715 13.9226 8.92259Z" fill="var(--fill-0, #005BFF)"/>
</g>
</svg>
