<svg preserveAspectRatio="none" width="100%" height="100%" overflow="visible" style="display: block;" viewBox="0 0 20 20" fill="none" xmlns="http://www.w3.org/2000/svg">
<g id="ic_m_price_list_filled">
<path id="Union" d="M10 2.5C8.70512 2.5 7.82998 3.1612 7.57614 4.28202C4.1467 4.68599 3.33333 6.26886 3.33333 10.8333C3.33333 16.3233 4.51 17.5 10 17.5C15.49 17.5 16.6667 16.3233 16.6667 10.8333C16.6667 6.26886 15.8533 4.68599 12.4239 4.28202C12.17 3.1612 11.2949 2.5 10 2.5ZM10 5.83333C9.48294 5.83333 9.16667 5.51706 9.16667 5C9.16667 4.48294 9.48294 4.16667 10 4.16667C10.5171 4.16667 10.8333 4.48294 10.8333 5C10.8333 5.51706 10.5171 5.83333 10 5.83333ZM6.66667 8.33333H10C10.4602 8.33333 10.8333 8.70643 10.8333 9.16667C10.8333 9.6269 10.4602 10 10 10H6.66667C6.20643 10 5.83333 9.6269 5.83333 9.16667C5.83333 8.70643 6.20643 8.33333 6.66667 8.33333ZM11.6667 9.16667C11.6667 8.70643 12.0398 8.33333 12.5 8.33333H13.3333C13.7936 8.33333 14.1667 8.70643 14.1667 9.16667C14.1667 9.6269 13.7936 10 13.3333 10H12.5C12.0398 10 11.6667 9.6269 11.6667 9.16667ZM6.66667 11.6667H10C10.4602 11.6667 10.8333 12.0398 10.8333 12.5C10.8333 12.9602 10.4602 13.3333 10 13.3333H6.66667C6.20643 13.3333 5.83333 12.9602 5.83333 12.5C5.83333 12.0398 6.20643 11.6667 6.66667 11.6667ZM11.6667 12.5C11.6667 12.0398 12.0398 11.6667 12.5 11.6667H13.3333C13.7936 11.6667 14.1667 12.0398 14.1667 12.5C14.1667 12.9602 13.7936 13.3333 13.3333 13.3333H12.5C12.0398 13.3333 11.6667 12.9602 11.6667 12.5Z" fill="var(--fill-0, #005BFF)"/>
</g>
</svg>
