<svg preserveAspectRatio="none" width="100%" height="100%" overflow="visible" style="display: block;" viewBox="0 0 16 16" fill="none" xmlns="http://www.w3.org/2000/svg">
<g id="ic_m_status_points_filled">
<path id="Union" d="M2.66667 5.33333C1.92602 5.33333 2 7.70833 2 9.58333C2 12.0833 3.00095 13.3333 8.00093 13.3333C13.0009 13.3333 14 12.0833 14 9.58333C14 7.70833 14.074 5.33333 13.3333 5.33333C12.6667 5.33333 12.1173 6.94993 11.6195 7.59371C11.3333 7.96373 11.2055 8.02083 10.9792 7.47917C10.5336 6.41239 9.33336 3.33333 8.00001 3.33333C6.66667 3.33333 5.46647 6.41239 5.02083 7.47917C4.79455 8.02083 4.66667 7.9637 4.38054 7.59371C3.88269 6.94993 3.33333 5.33333 2.66667 5.33333Z" fill="var(--fill-0, #232323)"/>
</g>
</svg>
