<svg preserveAspectRatio="none" width="100%" height="100%" overflow="visible" style="display: block;" viewBox="0 0 24 24" fill="none" xmlns="http://www.w3.org/2000/svg">
<g id="ic_m_tabbar_chat">
<path id="Union" d="M3.49219 11.5273C3.49219 5.85547 4.4375 4.4375 10.1094 4.4375H13.8907C19.5625 4.4375 20.5078 5.85547 20.5078 11.5273C20.5078 17.0445 19.5625 17.6719 13.8907 17.6719H8.21875C7.56488 18.6411 6.49669 19.5625 5.38284 19.5625C3.49219 19.5625 3.49219 14.3633 3.49219 11.5273ZM8.21875 12C8.74083 12 9.16406 11.5768 9.16406 11.0547C9.16406 10.5326 8.74083 10.1094 8.21875 10.1094C7.69667 10.1094 7.27344 10.5326 7.27344 11.0547C7.27344 11.5768 7.69667 12 8.21875 12ZM12.9453 11.0547C12.9453 10.5326 12.5221 10.1094 12 10.1094C11.4779 10.1094 11.0547 10.5326 11.0547 11.0547C11.0547 11.5768 11.4779 12 12 12C12.5221 12 12.9453 11.5768 12.9453 11.0547ZM15.7812 12C16.3033 12 16.7266 11.5768 16.7266 11.0547C16.7266 10.5326 16.3033 10.1094 15.7812 10.1094C15.2592 10.1094 14.8359 10.5326 14.8359 11.0547C14.8359 11.5768 15.2592 12 15.7812 12Z" fill="var(--fill-0, #001A34)" fill-opacity="0.6"/>
</g>
</svg>
