<svg preserveAspectRatio="none" width="100%" height="100%" overflow="visible" style="display: block;" viewBox="0 0 24 24" fill="none" xmlns="http://www.w3.org/2000/svg">
<g id="ic_m_catalog_tile_filled">
<path id="Union" d="M7.55566 12.8887C10.4835 12.8887 11.1113 13.5165 11.1113 16.4443C11.1113 19.3723 10.4836 20 7.55566 20C4.62766 20 4 19.3723 4 16.4443C4.00002 13.5164 4.6277 12.8887 7.55566 12.8887ZM16.4443 12.8887C19.3723 12.8887 20 13.5164 20 16.4443C20 19.3723 19.3723 20 16.4443 20C13.5164 20 12.8887 19.3723 12.8887 16.4443C12.8887 13.5165 13.5165 12.8887 16.4443 12.8887ZM7.55566 4C10.4836 4.00002 11.1113 4.6277 11.1113 7.55566C11.1113 10.4835 10.4835 11.1113 7.55566 11.1113C4.6277 11.1113 4.00002 10.4836 4 7.55566C4 4.62766 4.62766 4 7.55566 4ZM16.4443 4C19.3723 4 20 4.62766 20 7.55566C20 10.4836 19.3723 11.1113 16.4443 11.1113C13.5165 11.1113 12.8887 10.4835 12.8887 7.55566C12.8887 4.6277 13.5164 4.00002 16.4443 4Z" fill="var(--fill-0, #001A34)"/>
</g>
</svg>
