<svg preserveAspectRatio="none" width="100%" height="100%" overflow="visible" style="display: block;" viewBox="0 0 24 24" fill="none" xmlns="http://www.w3.org/2000/svg">
<g id="ic_m_tabbar_home">
<path id="Union" d="M9.92193 16.3707C9.92174 14.8086 9.92193 13.7711 11.9999 13.7793C14.0778 13.7876 14.0785 14.8086 14.078 16.3707L14.0776 17.9316C14.078 18.9683 14.0776 19.3992 14.3819 19.7032C14.6862 20.0073 15.1171 20.0073 16.1561 20.0073C18.2342 20.0073 19.2727 20.0073 19.7922 19.4882C20.3117 18.9691 20.3122 17.2289 20.3122 14.2926C20.3122 13.2545 20.3353 10.664 19.9403 9.79429C19.5675 8.97351 18.6501 7.77797 17.1947 6.51144C15.406 4.95499 12.988 3.38282 11.9999 3.38282C11.0117 3.38282 8.5934 4.95499 6.80477 6.51144C5.34931 7.77797 4.43191 8.97351 4.05916 9.79429C3.66415 10.664 3.68774 13.2545 3.68774 14.2926C3.68774 17.2289 3.68774 18.9691 4.20728 19.4882C4.72679 20.0073 5.7658 20.0073 7.84386 20.0073C8.8829 20.0073 9.3132 20.0073 9.61752 19.7032C9.92184 19.3992 9.92193 18.9683 9.92184 17.9316L9.92193 16.3707Z" fill="var(--fill-0, #005BFF)"/>
</g>
</svg>
