<svg preserveAspectRatio="none" width="100%" height="100%" overflow="visible" style="display: block;" viewBox="0 0 16 16" fill="none" xmlns="http://www.w3.org/2000/svg">
<g id="ic_s_confirmed_filled">
<path id="Union" d="M8 0C12.9637 0 16 3.03627 16 8C16 12.9637 12.9637 16 8 16C3.03627 16 0 12.9637 0 8C2.43065e-08 3.03627 3.03627 2.43073e-08 8 0ZM12.1846 5.59375C11.8374 5.24662 11.2739 5.24662 10.9268 5.59375L7.11133 9.40918L5.07324 7.37109C4.72611 7.02401 4.16254 7.02398 3.81543 7.37109C3.46837 7.71821 3.46837 8.28179 3.81543 8.62891L6.48242 11.2949C6.82954 11.642 7.39212 11.642 7.73926 11.2949L12.1846 6.85059C12.5313 6.50352 12.5313 5.9408 12.1846 5.59375Z" fill="var(--fill-0, #005BFF)"/>
</g>
</svg>
