<svg preserveAspectRatio="none" width="100%" height="100%" overflow="visible" style="display: block;" viewBox="0 0 16 16" fill="none" xmlns="http://www.w3.org/2000/svg">
<g id="ic_s_settings_filled">
<path id="Union" d="M5.31641 3.35186C4.99036 3.25048 4.66214 3.15664 4.33416 3.06179C2.87182 2.63893 2.49742 2.53066 1.50478 4.24997C0.512143 5.96927 0.7931 6.23937 1.89048 7.29437C2.13659 7.53098 2.38198 7.7683 2.63279 7.99997C2.38205 8.23157 2.13673 8.46883 1.89068 8.70538C0.7933 9.76037 0.512144 10.0307 1.50478 11.75C2.49742 13.4693 2.87203 13.3609 4.33437 12.9381C4.66136 12.8435 4.99134 12.7491 5.31639 12.6481C5.39152 12.9807 5.47456 13.3127 5.55632 13.6438C5.92127 15.1216 6.01471 15.5 7.99999 15.5C9.98527 15.5 10.0787 15.1216 10.4437 13.6438C10.5255 13.3123 10.6084 12.9811 10.6836 12.6481C11.0088 12.7492 11.3362 12.8428 11.6633 12.9374C13.1257 13.3603 13.5025 13.4693 14.4951 11.75C15.4878 10.0307 15.2068 9.76056 14.1094 8.70557C13.8633 8.46897 13.618 8.23165 13.3672 7.99999C13.618 7.76832 13.8634 7.53098 14.1095 7.29437C15.2069 6.23937 15.4878 5.96927 14.4952 4.24997C13.5026 2.53066 13.1282 2.63893 11.6658 3.06179C11.3378 3.15664 11.0096 3.25048 10.6836 3.35186C10.6084 3.01883 10.5255 2.68767 10.4437 2.35623C10.0787 0.878368 9.98527 0.5 7.99999 0.5C6.01471 0.5 5.92101 0.879447 5.55605 2.3573C5.47429 2.68838 5.39155 3.01919 5.31641 3.35186ZM7.99998 10.5C6.61927 10.5 5.49998 9.38071 5.49998 8C5.49998 6.61929 6.61927 5.5 7.99998 5.5C9.38069 5.5 10.5 6.61929 10.5 8C10.5 9.38071 9.38069 10.5 7.99998 10.5Z" fill="var(--fill-0, #001A34)" fill-opacity="0.4"/>
</g>
</svg>
